<svg width="25" height="24" viewBox="0 0 25 24" fill="none" xmlns="http://www.w3.org/2000/svg">
<path d="M12.5016 5.84744C9.09659 5.84744 6.34859 8.59544 6.34859 12.0004C6.34859 15.4054 9.09659 18.1534 12.5016 18.1534C15.9066 18.1534 18.6546 15.4054 18.6546 12.0004C18.6546 8.59544 15.9066 5.84744 12.5016 5.84744ZM12.5016 15.9994C10.2996 15.9994 8.50259 14.2024 8.50259 12.0004C8.50259 9.79844 10.2996 8.00144 12.5016 8.00144C14.7036 8.00144 16.5006 9.79844 16.5006 12.0004C16.5006 14.2024 14.7036 15.9994 12.5016 15.9994ZM18.9066 4.16144C18.1116 4.16144 17.4696 4.80344 17.4696 5.59844C17.4696 6.39344 18.1116 7.03544 18.9066 7.03544C19.7016 7.03544 20.3436 6.39644 20.3436 5.59844C20.3438 5.40966 20.3068 5.22269 20.2347 5.04824C20.1625 4.87379 20.0567 4.71528 19.9232 4.5818C19.7897 4.44831 19.6312 4.34247 19.4568 4.27034C19.2823 4.19821 19.0954 4.1612 18.9066 4.16144ZM24.4956 12.0004C24.4956 10.3444 24.5106 8.70344 24.4176 7.05044C24.3246 5.13044 23.8866 3.42644 22.4826 2.02244C21.0756 0.615437 19.3746 0.180437 17.4546 0.0874372C15.7986 -0.00556279 14.1576 0.00943725 12.5046 0.00943725C10.8486 0.00943725 9.20759 -0.00556279 7.55459 0.0874372C5.63459 0.180437 3.93059 0.618437 2.52659 2.02244C1.11959 3.42944 0.684588 5.13044 0.591588 7.05044C0.498588 8.70644 0.513588 10.3474 0.513588 12.0004C0.513588 13.6534 0.498588 15.2974 0.591588 16.9504C0.684588 18.8704 1.12259 20.5744 2.52659 21.9784C3.93359 23.3854 5.63459 23.8204 7.55459 23.9134C9.21059 24.0064 10.8516 23.9914 12.5046 23.9914C14.1606 23.9914 15.8016 24.0064 17.4546 23.9134C19.3746 23.8204 21.0786 23.3824 22.4826 21.9784C23.8896 20.5714 24.3246 18.8704 24.4176 16.9504C24.5136 15.2974 24.4956 13.6564 24.4956 12.0004ZM21.8556 19.0744C21.6366 19.6204 21.3726 20.0284 20.9496 20.4484C20.5266 20.8714 20.1216 21.1354 19.5756 21.3544C17.9976 21.9814 14.2506 21.8404 12.5016 21.8404C10.7526 21.8404 7.00259 21.9814 5.42459 21.3574C4.87859 21.1384 4.47059 20.8744 4.05059 20.4514C3.62759 20.0284 3.36359 19.6234 3.14459 19.0774C2.52059 17.4964 2.66159 13.7494 2.66159 12.0004C2.66159 10.2514 2.52059 6.50144 3.14459 4.92344C3.36359 4.37744 3.62759 3.96944 4.05059 3.54944C4.47359 3.12944 4.87859 2.86244 5.42459 2.64344C7.00259 2.01944 10.7526 2.16044 12.5016 2.16044C14.2506 2.16044 18.0006 2.01944 19.5786 2.64344C20.1246 2.86244 20.5326 3.12644 20.9526 3.54944C21.3756 3.97244 21.6396 4.37744 21.8586 4.92344C22.4826 6.50144 22.3416 10.2514 22.3416 12.0004C22.3416 13.7494 22.4826 17.4964 21.8556 19.0744Z" fill="#E61F5A"/>
</svg>
