<svg width="6" height="10" viewBox="0 0 6 10" fill="none" xmlns="http://www.w3.org/2000/svg">
<path fill-rule="evenodd" clip-rule="evenodd" d="M0.359835 0.694796C0.421736 0.632739 0.495272 0.583503 0.576231 0.549909C0.657189 0.516315 0.743979 0.499023 0.831631 0.499023C0.919282 0.499023 1.00607 0.516315 1.08703 0.549909C1.16799 0.583503 1.24153 0.632739 1.30343 0.694796L5.30169 4.69306C5.36375 4.75496 5.41298 4.8285 5.44658 4.90945C5.48017 4.99041 5.49746 5.0772 5.49746 5.16486C5.49746 5.25251 5.48017 5.3393 5.44658 5.42026C5.41298 5.50121 5.36375 5.57475 5.30169 5.63665L1.30343 9.63491C1.1783 9.76004 1.00859 9.83034 0.831631 9.83034C0.654673 9.83034 0.484963 9.76004 0.359835 9.63491C0.234708 9.50979 0.164412 9.34008 0.164412 9.16312C0.164412 8.98616 0.234708 8.81645 0.359835 8.69132L3.88764 5.16486L0.359835 1.63839C0.297778 1.57649 0.248543 1.50295 0.214949 1.42199C0.181355 1.34103 0.164062 1.25424 0.164062 1.16659C0.164062 1.07894 0.181355 0.992149 0.214949 0.911191C0.248543 0.830233 0.297778 0.756697 0.359835 0.694796Z" fill="#0D5C63"/>
</svg>
