<svg width="16" height="16" viewBox="0 0 16 16" fill="none" xmlns="http://www.w3.org/2000/svg">
<path fill-rule="evenodd" clip-rule="evenodd" d="M11.4601 10.3185L15.7639 14.6223C15.9151 14.7737 16.0001 14.979 16 15.193C15.9999 15.407 15.9148 15.6122 15.7635 15.7635C15.6121 15.9147 15.4068 15.9997 15.1928 15.9996C14.9788 15.9995 14.7736 15.9144 14.6223 15.7631L10.3185 11.4593C9.03194 12.4558 7.41407 12.9247 5.79403 12.7707C4.17398 12.6167 2.67346 11.8513 1.59771 10.6302C0.521957 9.40911 -0.0482098 7.82408 0.00319691 6.19754C0.0546036 4.57101 0.723722 3.02514 1.87443 1.87443C3.02514 0.723722 4.57101 0.0546036 6.19754 0.00319691C7.82408 -0.0482098 9.40911 0.521957 10.6302 1.59771C11.8513 2.67346 12.6167 4.17398 12.7707 5.79403C12.9247 7.41407 12.4558 9.03194 11.4593 10.3185H11.4601ZM6.4003 11.1993C7.67328 11.1993 8.89412 10.6936 9.79425 9.79345C10.6944 8.89332 11.2001 7.67248 11.2001 6.3995C11.2001 5.12652 10.6944 3.90568 9.79425 3.00554C8.89412 2.10541 7.67328 1.59972 6.4003 1.59972C5.12732 1.59972 3.90648 2.10541 3.00634 3.00554C2.10621 3.90568 1.60052 5.12652 1.60052 6.3995C1.60052 7.67248 2.10621 8.89332 3.00634 9.79345C3.90648 10.6936 5.12732 11.1993 6.4003 11.1993Z" fill="white"/>
</svg>
