<svg width="19" height="20" viewBox="0 0 19 20" fill="none" xmlns="http://www.w3.org/2000/svg">
<path d="M18.6311 7.41256C18.5734 7.24274 18.4673 7.09353 18.3258 6.98335C18.1843 6.87316 18.0137 6.80681 17.8349 6.79251L12.6057 6.377L10.3429 1.36798C10.2709 1.20665 10.1536 1.06963 10.0054 0.973442C9.85721 0.877257 9.68432 0.826025 9.50762 0.825928C9.33093 0.825831 9.15798 0.876874 9.00966 0.972896C8.86133 1.06892 8.74397 1.20582 8.67173 1.36707L6.40891 6.377L1.17976 6.79251C1.00407 6.80642 0.836105 6.87066 0.695967 6.97754C0.555829 7.08442 0.449449 7.2294 0.389554 7.39516C0.329659 7.56091 0.318785 7.74041 0.358232 7.91218C0.39768 8.08395 0.485779 8.24072 0.61199 8.36373L4.4763 12.1308L3.10962 18.0488C3.06812 18.2279 3.08142 18.4154 3.14779 18.5869C3.21417 18.7584 3.33055 18.9059 3.48183 19.0105C3.63312 19.115 3.81233 19.1716 3.9962 19.173C4.18008 19.1744 4.36013 19.1205 4.51299 19.0183L9.50733 15.6888L14.5017 19.0183C14.6579 19.1221 14.8422 19.1755 15.0297 19.1713C15.2171 19.1672 15.3989 19.1058 15.5504 18.9953C15.702 18.8848 15.816 18.7306 15.8773 18.5533C15.9386 18.3761 15.9441 18.1843 15.8931 18.0039L14.2155 12.1336L18.3761 8.38941C18.6485 8.14359 18.7485 7.76019 18.6311 7.41256Z" fill="#F3CD03"/>
</svg>
