<svg width="19" height="20" viewBox="0 0 19 20" fill="none" xmlns="http://www.w3.org/2000/svg">
<path d="M4.5319 12.1308L3.16522 18.0488C3.1229 18.228 3.13561 18.4158 3.20168 18.5877C3.26775 18.7596 3.38411 18.9075 3.53557 19.0122C3.68703 19.1169 3.86655 19.1735 4.05068 19.1746C4.2348 19.1757 4.41498 19.1212 4.56767 19.0183L9.56201 15.6888L14.5564 19.0183C14.7126 19.1221 14.8968 19.1755 15.0843 19.1714C15.2718 19.1673 15.4536 19.1058 15.6051 18.9953C15.7567 18.8849 15.8707 18.7306 15.932 18.5534C15.9933 18.3761 15.9988 18.1844 15.9478 18.0039L14.2702 12.1336L18.4308 8.38944C18.564 8.26946 18.6592 8.11304 18.7045 7.93955C18.7498 7.76605 18.7432 7.58308 18.6856 7.41327C18.6281 7.24345 18.522 7.09424 18.3805 6.98408C18.239 6.87392 18.0683 6.80764 17.8896 6.79345L12.6604 6.37703L10.3976 1.36801C10.3255 1.20672 10.2082 1.06976 10.0599 0.973657C9.91163 0.877554 9.73871 0.826416 9.56201 0.826416C9.38532 0.826416 9.2124 0.877554 9.06413 0.973657C8.91586 1.06976 8.79857 1.20672 8.72641 1.36801L6.4636 6.37703L1.23445 6.79254C1.05875 6.80645 0.890792 6.87069 0.750655 6.97757C0.610517 7.08445 0.504137 7.22943 0.444242 7.39518C0.384346 7.56094 0.373472 7.74044 0.41292 7.91221C0.452367 8.08398 0.540467 8.24074 0.666677 8.36376L4.5319 12.1308ZM7.14877 8.16288C7.31249 8.14998 7.46973 8.09328 7.604 7.99871C7.73827 7.90414 7.84462 7.77519 7.91191 7.62538L9.56201 3.97387L11.2121 7.62538C11.2794 7.77519 11.3858 7.90414 11.52 7.99871C11.6543 8.09328 11.8115 8.14998 11.9753 8.16288L15.6185 8.45181L12.6182 11.1521C12.3577 11.387 12.2541 11.7484 12.3495 12.0859L13.4988 16.108L10.072 13.8231C9.92159 13.7222 9.74454 13.6683 9.56339 13.6683C9.38224 13.6683 9.20519 13.7222 9.05478 13.8231L5.4739 16.2107L6.437 12.0409C6.47231 11.8876 6.46757 11.7277 6.42323 11.5767C6.3789 11.4257 6.29646 11.2887 6.18384 11.1787L3.39728 8.4619L7.14877 8.16288Z" fill="#F3CD03"/>
</svg>
