<svg width="25" height="20" viewBox="0 0 25 20" fill="none" xmlns="http://www.w3.org/2000/svg">
<path d="M24.5004 2.46548C23.6188 2.85141 22.6594 3.12917 21.6711 3.23735C22.6971 2.61879 23.4655 1.64156 23.832 0.489007C22.8692 1.07022 21.8145 1.47778 20.7146 1.6936C20.2549 1.19488 19.6989 0.797581 19.0813 0.526453C18.4636 0.255325 17.7976 0.116179 17.1247 0.117688C14.402 0.117688 12.2123 2.3573 12.2123 5.10564C12.2123 5.49158 12.2584 5.87752 12.3333 6.24884C8.2565 6.03248 4.62048 4.05601 2.2032 1.0299C1.76274 1.79335 1.53193 2.66261 1.53477 3.54727C1.53477 5.27814 2.402 6.80435 3.72444 7.70195C2.94511 7.6708 2.18402 7.45342 1.50308 7.06749V7.12889C1.50308 9.5527 3.19143 11.5613 5.44161 12.0233C5.01912 12.1347 4.58449 12.1916 4.14797 12.1929C3.82817 12.1929 3.52565 12.1607 3.22024 12.1168C3.84257 14.0933 5.65482 15.5289 7.8128 15.5757C6.12444 16.9177 4.00968 17.7071 1.7134 17.7071C1.3014 17.7071 0.921085 17.6925 0.526367 17.6457C2.70452 19.0637 5.28891 19.8824 8.0721 19.8824C17.1074 19.8824 22.0514 12.2864 22.0514 5.69332C22.0514 5.47696 22.0514 5.2606 22.037 5.04424C22.9936 4.33377 23.832 3.45371 24.5004 2.46548Z" fill="#21A6DF"/>
</svg>
