<svg width="25" height="18" viewBox="0 0 25 18" fill="none" xmlns="http://www.w3.org/2000/svg">
<path d="M23.9699 2.93166C23.8335 2.3987 23.5663 1.91276 23.1951 1.52249C22.824 1.13221 22.3619 0.851291 21.855 0.707834C19.9884 0.176636 12.4879 0.176636 12.4879 0.176636C12.4879 0.176636 4.98729 0.176636 3.12071 0.707834C2.61385 0.851291 2.15172 1.13221 1.78057 1.52249C1.40941 1.91276 1.14225 2.3987 1.00582 2.93166C0.657288 4.93335 0.488155 6.96501 0.500644 8.99993C0.488155 11.0348 0.657288 13.0665 1.00582 15.0682C1.14225 15.6012 1.40941 16.0871 1.78057 16.4774C2.15172 16.8676 2.61385 17.1486 3.12071 17.292C4.98729 17.8232 12.4879 17.8232 12.4879 17.8232C12.4879 17.8232 19.9884 17.8232 21.855 17.292C22.3619 17.1486 22.824 16.8676 23.1951 16.4774C23.5663 16.0871 23.8335 15.6012 23.9699 15.0682C24.3184 13.0665 24.4876 11.0348 24.4751 8.99993C24.4876 6.96501 24.3184 4.93335 23.9699 2.93166ZM10.0904 12.7813V5.21852L16.3152 8.99993L10.0904 12.7813Z" fill="#E42F08"/>
</svg>
